<svg xmlns="http://www.w3.org/2000/svg" version="1.1" x="0" y="0" width="200.2" height="22.66" viewBox="412 46.27 200.2 22.66" enable-background="new 412 46.27 200.195 22.656" xml:space="preserve"><path fill="#FFFFFF" d="M425.09 68.93c-0.98 0-1.95 0-2.93 0 -2.77-2.71-6.12-4.08-9.96-4.3 0-2.73 0-5.47 0-8.2 4.5 2.37 8.38 5.46 11.31 9.84 1.64-7.92 4.24-15.08 11.15-19.8 2.41 0 4.82 0 7.23 0 -0.06 0.18-0.13 0.36-0.17 0.55 -0.32 1.61-0.03 1.97 1.59 1.97 1.72 0 3.43 0 5.24 0 0 0.45 0 0.8 0 1.14 0 5.86 0 11.71 0.01 17.56 0 0.41 0.11 0.82 0.17 1.23 -4.69 0-9.37 0-14.06 0 0.02-0.16 0.06-0.32 0.06-0.48 0-3.83 0.01-7.66 0-11.49 0-0.22-0.05-0.44-0.08-0.78 -1.47 0.45-2.59 1.32-3.54 2.38C428.35 61.58 426.53 65.15 425.09 68.93z"/><path fill-rule="evenodd" clip-rule="evenodd" fill="#FFFFFF" d="M523.33 68.93c-4.82 0-9.64 0-14.45 0 0.4-0.13 0.8-0.26 1.19-0.39 2.38-0.83 3.89-2.42 4.26-4.95 0.39-2.71-0.64-4.75-3-6.13 -0.56-0.33-1.15-0.61-1.72-0.9 -1.12-0.58-2.28-1.1-3.37-1.73 -0.99-0.58-1.69-1.42-1.77-2.64 -0.14-2.05 1.55-3.58 3.88-3.24 1.28 0.19 2.5 0.8 3.74 1.26 0.42 0.16 0.78 0.42 1.02-0.19 0.43-1.06 0-2.21-1.07-2.67 -0.83-0.35-1.7-0.59-2.56-0.87 2.34 0 4.69 0 7.03 0 -0.06 0.12-0.13 0.23-0.17 0.35 -0.52 1.54-0.09 2.18 1.49 2.18 1.72 0 3.43 0 5.25 0 0 0.49 0 0.87 0 1.26 0 5.79-0.01 11.58 0.01 17.38C523.08 68.06 523.24 68.49 523.33 68.93z"/><path fill-rule="evenodd" clip-rule="evenodd" d="M434.66 46.47c-6.92 4.71-9.52 11.88-11.15 19.8 -2.93-4.38-6.81-7.47-11.31-9.84 0-3.31 0-6.62 0-9.96C419.68 46.47 427.17 46.47 434.66 46.47z"/><path fill-rule="evenodd" clip-rule="evenodd" fill="#FFFFFF" d="M458.09 46.47c1.69 0 3.39 0 5.08 0 -0.19 0.56-0.54 1.11-0.55 1.67 -0.04 6.52-0.03 13.05-0.02 19.57 0 0.41 0.11 0.82 0.17 1.23 -3.84 0-7.68 0-11.52 0 0.09-0.43 0.25-0.87 0.25-1.3 0.02-5.81 0.01-11.62 0.01-17.43 0-0.38 0-0.76 0-1.21 1.92 0 3.7 0 5.48 0 1.28 0 1.6-0.34 1.42-1.62C458.37 47.06 458.21 46.77 458.09 46.47z"/><path fill-rule="evenodd" clip-rule="evenodd" fill="#FFFFFF" d="M582.7 68.93c-2.8 0-5.6 0-8.4 0 0.52-2.23 0.28-2.52-2.03-2.52 -2.1 0-4.21 0-6.42 0 0-0.48 0-0.86 0-1.24 0-5.79 0.01-11.57-0.02-17.36 0-0.45-0.33-0.89-0.51-1.34 6.06 0 12.11 0 18.16 0 -0.18 0.07-0.35 0.16-0.53 0.19 -3.68 0.69-6 2.9-7.05 6.44 -0.84 2.82-0.83 5.7-0.28 8.57 0.74 3.85 2.85 6.39 6.85 7.11C582.55 68.79 582.62 68.87 582.7 68.93z"/><path fill-rule="evenodd" clip-rule="evenodd" fill="#FFFFFF" d="M536.61 68.93c-3.65 0-7.29 0-10.94 0 0.13-0.41 0.36-0.82 0.36-1.23 0.02-5.88 0.02-11.76 0.02-17.64 0-0.34 0-0.68 0-1.06 1.84 0 3.53 0 5.22 0 1.62 0 1.92-0.37 1.6-1.97 -0.04-0.19-0.11-0.37-0.16-0.55 1.5 0 3 0 4.49 0 -0.64 0.38-0.74 0.98-0.74 1.67 0.02 6.55 0.01 13.1 0.02 19.65C536.47 68.16 536.56 68.55 536.61 68.93z"/><path fill-rule="evenodd" clip-rule="evenodd" fill="#FFFFFF" d="M544.23 46.47c3.58 0 7.16 0 10.74 0 -0.59 0.19-0.61 0.65-0.61 1.16 0.01 6.76 0 13.52 0.02 20.27 0 0.34 0.13 0.68 0.2 1.02 -5.14 0-10.29 0-15.43 0 0.11-0.39 0.32-0.78 0.33-1.17 0.03-2.11 0.01-4.23 0.02-6.34 0-0.34 0.04-0.68 0.06-1.07 1.09 0 2.07 0.08 3.03-0.02 1.12-0.11 2.28-0.24 3.33-0.61 2.85-1 4.37-3.47 4.35-6.8 -0.02-2.83-1.48-4.97-4.08-5.91C545.55 46.78 544.88 46.64 544.23 46.47z"/><path fill-rule="evenodd" clip-rule="evenodd" fill="#FFFFFF" d="M483.29 46.47c3.97 0 7.94 0 11.91 0 -0.19 0.4-0.54 0.8-0.55 1.2 -0.04 4.42-0.01 8.84-0.03 13.26 -0.01 2.59-1.21 4.49-3.2 5.2 -3.71 1.32-6.98-0.65-7.51-4.53 -0.06-0.42-0.05-0.84-0.05-1.27 0-4.23 0.01-8.45-0.03-12.68C483.83 47.26 483.48 46.86 483.29 46.47z"/><path fill-rule="evenodd" clip-rule="evenodd" fill="#FFFFFF" d="M587 46.47c2.93 0 5.86 0 8.79 0 -0.88 1.77-0.44 2.53 1.46 2.53 1.68 0 3.35 0 5.11 0 0 0.52 0 0.91 0 1.29 0 5.78 0 11.57 0.01 17.35 0 0.43 0.17 0.86 0.25 1.3 -5.27 0-10.55 0-15.82 0 0.11-0.05 0.22-0.14 0.35-0.16 3.66-0.67 5.96-2.88 6.98-6.39 1-3.41 0.99-6.86-0.11-10.26 -0.96-2.97-3.06-4.73-6.09-5.42C587.62 46.63 587.31 46.55 587 46.47z"/><path fill-rule="evenodd" clip-rule="evenodd" fill="#FFFFFF" d="M504.97 68.93c-4.62 0-9.24 0-13.87 0 0.08-0.05 0.16-0.12 0.25-0.14 4.09-0.76 6.17-3.99 6.2-7.84 0.03-4.49 0.02-8.98-0.01-13.46 0-0.34-0.25-0.68-0.39-1.02 3.19 0 6.38 0 9.57 0 -0.28 0.08-0.55 0.17-0.83 0.24 -2.28 0.62-3.9 1.92-4.33 4.35 -0.43 2.43 0.31 4.45 2.35 5.88 0.9 0.63 1.91 1.09 2.88 1.61 0.94 0.5 1.94 0.92 2.84 1.48 1.33 0.83 1.95 2.04 1.62 3.65 -0.29 1.41-1.37 2.41-2.97 2.72 -2.06 0.39-3.91-0.19-5.7-1.15 -0.42-0.22-0.91-0.29-1.37-0.43 -0.09 0.53-0.33 1.09-0.23 1.57 0.1 0.48 0.44 1.08 0.85 1.29C502.82 68.19 503.92 68.52 504.97 68.93z"/><path fill-rule="evenodd" clip-rule="evenodd" d="M587 46.47c0.31 0.08 0.62 0.17 0.93 0.24 3.03 0.69 5.13 2.45 6.09 5.42 1.1 3.39 1.11 6.84 0.11 10.26 -1.03 3.51-3.32 5.72-6.98 6.39 -0.12 0.02-0.23 0.1-0.34 0.16 -1.37 0-2.73 0-4.1 0 -0.08-0.05-0.15-0.14-0.24-0.15 -3.99-0.72-6.11-3.26-6.85-7.11 -0.55-2.87-0.56-5.75 0.28-8.57 1.05-3.54 3.37-5.75 7.06-6.44 0.18-0.04 0.36-0.13 0.53-0.19C584.66 46.47 585.83 46.47 587 46.47zM578.19 57.4c0.24 1.7 0.34 3.07 0.65 4.39 0.43 1.85 1.43 3.33 3.24 4.13 3.82 1.7 7.97-0.16 9.11-4.16 0.8-2.81 0.78-5.66-0.04-8.46 -0.81-2.77-2.74-4.19-5.67-4.32 -2.98-0.13-5.32 1.19-6.25 3.82C578.66 54.36 578.48 56.05 578.19 57.4z"/><path fill-rule="evenodd" clip-rule="evenodd" d="M462.78 68.93c-0.06-0.41-0.17-0.82-0.17-1.23 -0.01-6.52-0.02-13.05 0.02-19.57 0-0.56 0.36-1.11 0.55-1.67 2.47 0 4.95 0 7.42 0 0.31 0.08 0.62 0.17 0.93 0.24 2.73 0.62 4.38 2.31 4.68 4.82 0.35 2.82-0.8 4.88-3.42 6.16 -0.21 0.1-0.41 0.23-0.7 0.38 1.38 0.79 2.15 1.95 2.7 3.25 0.88 2.06 1.73 4.13 2.53 6.22 0.16 0.42 0.08 0.93 0.11 1.4 -0.91 0-1.82 0-2.73 0 -0.2-0.4-0.42-0.8-0.59-1.22 -0.79-1.95-1.5-3.94-2.36-5.86 -1.11-2.48-2.66-3.36-6.16-2.76 0 0.34 0 0.69 0 1.04 0 2.53 0.01 5.07-0.01 7.6 0 0.4-0.16 0.8-0.25 1.2C464.47 68.93 463.63 68.93 462.78 68.93zM465.65 56.48c1 0 1.94 0.01 2.88 0 0.42 0 0.85-0.01 1.26-0.09 2.09-0.37 3.27-1.72 3.27-3.72 0-2.02-1.05-3.36-3.08-3.6 -1.4-0.16-2.84-0.03-4.33-0.03C465.65 51.49 465.65 53.94 465.65 56.48z"/><path fill-rule="evenodd" clip-rule="evenodd" d="M497.16 46.47c0.14 0.34 0.39 0.68 0.39 1.02 0.03 4.49 0.04 8.98 0.01 13.46 -0.03 3.85-2.12 7.07-6.2 7.84 -0.09 0.02-0.17 0.09-0.25 0.14 -1.3 0-2.6 0-3.91 0 -0.09-0.04-0.17-0.11-0.26-0.13 -4.18-0.82-5.97-4.03-5.99-7.65 -0.03-4.55-0.02-9.11 0.01-13.66 0-0.34 0.25-0.68 0.39-1.02 0.65 0 1.3 0 1.95 0 0.19 0.4 0.54 0.79 0.55 1.19 0.04 4.23 0.02 8.45 0.03 12.68 0 0.42-0.01 0.85 0.05 1.27 0.53 3.88 3.8 5.85 7.51 4.53 2-0.71 3.19-2.61 3.21-5.2 0.02-4.42-0.01-8.84 0.03-13.26 0-0.4 0.36-0.8 0.55-1.2C495.85 46.47 496.51 46.47 497.16 46.47z"/><path fill-rule="evenodd" clip-rule="evenodd" d="M544.23 46.47c0.65 0.18 1.32 0.31 1.96 0.54 2.6 0.94 4.07 3.08 4.09 5.91 0.02 3.33-1.5 5.8-4.35 6.8 -1.05 0.37-2.21 0.5-3.33 0.61 -0.96 0.1-1.94 0.02-3.03 0.02 -0.02 0.39-0.06 0.73-0.06 1.07 0 2.11 0.02 4.23-0.02 6.34 -0.01 0.39-0.21 0.78-0.32 1.17 -0.85 0-1.69 0-2.54 0 -0.05-0.38-0.14-0.76-0.14-1.14 -0.01-6.55 0-13.1-0.01-19.65 0-0.69 0.1-1.29 0.74-1.67C539.54 46.47 541.88 46.47 544.23 46.47zM539.53 57.97c1.45-0.06 2.82 0 4.15-0.21 2.05-0.32 3.33-1.99 3.46-4.24 0.12-2.02-0.92-3.89-2.68-4.25 -1.58-0.33-3.25-0.29-4.93-0.42C539.53 51.98 539.53 54.86 539.53 57.97z"/><path fill-rule="evenodd" clip-rule="evenodd" fill="#FFFFFF" d="M481.34 46.47c-0.13 0.34-0.38 0.68-0.39 1.02 -0.03 4.55-0.04 9.11-0.01 13.66 0.02 3.62 1.81 6.83 5.99 7.65 0.09 0.02 0.18 0.08 0.26 0.13 -3.25 0-6.51 0-9.77 0 -0.03-0.47 0.05-0.98-0.11-1.39 -0.81-2.09-1.66-4.16-2.53-6.22 -0.56-1.3-1.32-2.46-2.7-3.25 0.29-0.16 0.49-0.28 0.7-0.38 2.62-1.28 3.77-3.34 3.42-6.16 -0.31-2.5-1.95-4.19-4.68-4.82 -0.31-0.07-0.62-0.16-0.93-0.24C474.18 46.47 477.76 46.47 481.34 46.47z"/><path fill-rule="evenodd" clip-rule="evenodd" fill="#FFFFFF" d="M612.2 48.61c0 6.77 0 13.54 0 20.31 -2.34 0-4.69 0-7.03 0 0.06-0.44 0.17-0.89 0.17-1.33 0.01-5.85 0.01-11.7 0.01-17.55 0-0.34 0-0.68 0-1.06 2.01 0 3.86 0.02 5.71-0.02C611.44 48.97 611.82 48.74 612.2 48.61z"/><path fill-rule="evenodd" clip-rule="evenodd" fill="#FFFFFF" d="M556.92 46.47c2.15 0 4.3 0 6.45 0 -0.18 0.38-0.51 0.75-0.51 1.13 -0.03 6.65-0.03 13.3 0 19.94 0 0.46 0.33 0.93 0.51 1.39 -2.08 0-4.17 0-6.25 0 0.07-0.31 0.2-0.62 0.2-0.93 0.01-6.84 0.02-13.67-0.01-20.51C557.31 47.15 557.06 46.81 556.92 46.47z"/><path fill-rule="evenodd" clip-rule="evenodd" d="M504.97 68.93c-1.05-0.41-2.14-0.74-3.14-1.26 -0.41-0.21-0.76-0.81-0.85-1.29 -0.1-0.49 0.14-1.04 0.24-1.57 0.46 0.14 0.96 0.21 1.38 0.44 1.79 0.96 3.65 1.54 5.7 1.15 1.59-0.3 2.67-1.3 2.97-2.71 0.34-1.61-0.28-2.82-1.62-3.65 -0.9-0.56-1.9-0.98-2.84-1.48 -0.97-0.52-1.99-0.98-2.88-1.61 -2.03-1.43-2.78-3.45-2.35-5.88 0.43-2.43 2.06-3.73 4.33-4.35 0.28-0.08 0.55-0.16 0.83-0.24 0.91 0 1.82 0 2.73 0 0.85 0.29 1.73 0.52 2.56 0.87 1.07 0.46 1.5 1.61 1.07 2.67 -0.24 0.61-0.6 0.35-1.02 0.19 -1.23-0.46-2.46-1.08-3.74-1.26 -2.33-0.34-4.01 1.19-3.87 3.24 0.08 1.22 0.79 2.06 1.77 2.64 1.09 0.64 2.25 1.16 3.37 1.73 0.58 0.3 1.16 0.58 1.72 0.9 2.36 1.37 3.39 3.42 3 6.13 -0.37 2.54-1.88 4.13-4.26 4.96 -0.4 0.14-0.79 0.26-1.19 0.4C507.57 68.93 506.27 68.93 504.97 68.93z"/><path fill-rule="evenodd" clip-rule="evenodd" d="M612.2 48.61c-0.38 0.13-0.75 0.35-1.14 0.36 -1.85 0.04-3.7 0.02-5.71 0.02 0 0.38 0 0.72 0 1.06 0 5.85 0 11.7-0.01 17.55 0 0.44-0.11 0.89-0.17 1.33 -0.85 0-1.69 0-2.54 0 -0.09-0.43-0.25-0.86-0.25-1.3 -0.02-5.78-0.01-11.56-0.01-17.35 0-0.38 0-0.77 0-1.29 -1.76 0-3.44 0-5.11 0 -1.9 0-2.34-0.75-1.46-2.52 5.47 0 10.94 0 16.41 0C612.2 47.19 612.2 47.9 612.2 48.61z"/><path fill-rule="evenodd" clip-rule="evenodd" d="M458.09 46.47c0.11 0.3 0.28 0.59 0.32 0.91 0.18 1.28-0.13 1.62-1.42 1.62 -1.78 0-3.56 0-5.48 0 0 0.45 0 0.83 0 1.21 0 5.81 0.01 11.62-0.01 17.43 0 0.43-0.16 0.87-0.25 1.3 -0.85 0-1.69 0-2.54 0 -0.06-0.41-0.17-0.82-0.17-1.23 -0.01-5.85-0.01-11.71-0.01-17.56 0-0.35 0-0.7 0-1.14 -1.81 0-3.53 0-5.24 0 -1.61 0-1.91-0.36-1.58-1.97 0.04-0.19 0.11-0.37 0.17-0.55C447.29 46.47 452.69 46.47 458.09 46.47z"/><path fill-rule="evenodd" clip-rule="evenodd" d="M532.7 46.47c0.06 0.18 0.13 0.37 0.16 0.55 0.32 1.6 0.02 1.97-1.6 1.97 -1.69 0-3.37 0-5.22 0 0 0.38 0 0.72 0 1.06 0 5.88 0.01 11.76-0.02 17.64 0 0.41-0.23 0.82-0.36 1.23 -0.78 0-1.56 0-2.34 0 -0.09-0.43-0.25-0.87-0.25-1.3 -0.02-5.79-0.01-11.58-0.01-17.37 0-0.38 0-0.77 0-1.26 -1.82 0-3.54 0-5.25 0 -1.58 0-2.01-0.63-1.49-2.18 0.04-0.12 0.11-0.23 0.17-0.35C521.9 46.47 527.3 46.47 532.7 46.47z"/><path fill-rule="evenodd" clip-rule="evenodd" d="M563.37 68.93c-0.18-0.46-0.51-0.92-0.51-1.39 -0.03-6.65-0.03-13.29 0-19.94 0-0.38 0.33-0.75 0.51-1.13 0.65 0 1.3 0 1.95 0 0.18 0.45 0.51 0.89 0.51 1.34 0.03 5.79 0.02 11.57 0.02 17.36 0 0.38 0 0.76 0 1.24 2.21 0 4.32 0 6.42 0 2.31 0 2.55 0.29 2.03 2.53C570.66 68.93 567.01 68.93 563.37 68.93z"/><path fill-rule="evenodd" clip-rule="evenodd" d="M425.09 68.93c1.44-3.78 3.27-7.35 6.01-10.37 0.96-1.06 2.07-1.93 3.55-2.38 0.04 0.34 0.08 0.56 0.08 0.78 0 3.83 0 7.66 0 11.49 0 0.16-0.04 0.32-0.06 0.48C431.47 68.93 428.28 68.93 425.09 68.93z"/><path fill-rule="evenodd" clip-rule="evenodd" fill="#FFFFFF" d="M465.32 68.93c0.09-0.4 0.25-0.8 0.25-1.2 0.02-2.53 0.01-5.07 0.01-7.6 0-0.35 0-0.7 0-1.04 3.5-0.6 5.05 0.28 6.16 2.76 0.86 1.92 1.57 3.91 2.36 5.86 0.17 0.42 0.39 0.81 0.59 1.22C471.57 68.93 468.45 68.93 465.32 68.93z"/><path fill-rule="evenodd" clip-rule="evenodd" d="M556.92 46.47c0.14 0.34 0.39 0.68 0.39 1.02 0.02 6.84 0.02 13.67 0.01 20.51 0 0.31-0.13 0.62-0.2 0.93 -0.85 0-1.69 0-2.54 0 -0.07-0.34-0.2-0.68-0.2-1.02 -0.01-6.76-0.01-13.52-0.02-20.27 0-0.52 0.01-0.98 0.61-1.16C555.62 46.47 556.27 46.47 556.92 46.47z"/><path fill-rule="evenodd" clip-rule="evenodd" d="M412.2 64.63c3.85 0.22 7.19 1.59 9.96 4.3 -3.3 0-6.59 0-9.96 0C412.2 67.49 412.2 66.06 412.2 64.63z"/><path fill-rule="evenodd" clip-rule="evenodd" fill="#FFFFFF" d="M578.19 57.4c0.29-1.35 0.48-3.04 1.03-4.61 0.93-2.62 3.27-3.95 6.25-3.82 2.93 0.13 4.86 1.55 5.67 4.32 0.82 2.81 0.84 5.66 0.04 8.46 -1.14 4.01-5.29 5.86-9.11 4.16 -1.82-0.81-2.81-2.29-3.24-4.13C578.52 60.47 578.43 59.1 578.19 57.4z"/><path fill-rule="evenodd" clip-rule="evenodd" fill="#FFFFFF" d="M465.65 56.48c0-2.54 0-4.99 0-7.44 1.49 0 2.93-0.13 4.33 0.03 2.03 0.24 3.08 1.58 3.08 3.6 0 2-1.18 3.35-3.27 3.72 -0.41 0.07-0.84 0.08-1.26 0.09C467.59 56.48 466.66 56.48 465.65 56.48z"/><path fill-rule="evenodd" clip-rule="evenodd" fill="#FFFFFF" d="M539.53 57.97c0-3.11 0-5.99 0-9.12 1.68 0.13 3.34 0.09 4.93 0.42 1.76 0.37 2.8 2.23 2.69 4.25 -0.13 2.25-1.41 3.92-3.46 4.24C542.35 57.96 540.98 57.91 539.53 57.97z"/></svg>